<svg width="472" height="46" viewBox="0 0 472 46" fill="none" xmlns="http://www.w3.org/2000/svg">
<path d="M18.9935 34.8455H9.71462L0.580002 3.1147H9.47423L14.7146 28.3551L20.4358 3.1147H27.9358L33.7531 28.307L38.9935 3.1147H47.5512L38.3685 34.8455H29.3781L25.6281 19.4609L24.1858 11.7205H24.0896L22.6954 19.4609L18.9935 34.8455Z" fill="#5E89FB"/>
<path d="M54.093 8.01854C52.4263 8.01854 51.2084 7.71406 50.4391 7.10508C49.702 6.46406 49.3334 5.47047 49.3334 4.12431C49.3334 2.74611 49.702 1.75252 50.4391 1.14354C51.2084 0.502519 52.4263 0.182007 54.093 0.182007C55.7597 0.182007 56.9616 0.502519 57.6988 1.14354C58.468 1.75252 58.8526 2.74611 58.8526 4.12431C58.8526 5.47047 58.468 6.46406 57.6988 7.10508C56.9616 7.71406 55.7597 8.01854 54.093 8.01854ZM58.1795 34.8455H50.0065V10.807H58.1795V34.8455Z" fill="#5E89FB"/>
<path d="M71.113 26.5282C71.113 27.6179 71.2732 28.3871 71.5937 28.8359C71.9143 29.2846 72.4912 29.5089 73.3245 29.5089C74.0937 29.5089 74.9111 29.3647 75.7764 29.0762L75.2476 34.1243C74.6707 34.4769 73.9175 34.7653 72.988 34.9897C72.0585 35.2141 71.145 35.3262 70.2476 35.3262C67.6835 35.3262 65.8245 34.7333 64.6707 33.5474C63.5168 32.3294 62.9399 30.3903 62.9399 27.7301V0.614699H71.113V26.5282Z" fill="#5E89FB"/>
<path d="M101.216 22.4897C101.216 23.5794 101.136 24.4769 100.976 25.182H84.5816C84.8381 26.6884 85.3829 27.7942 86.2163 28.4993C87.0816 29.2044 88.2195 29.557 89.6297 29.557C90.8156 29.557 91.7772 29.3326 92.5143 28.8839C93.2836 28.4352 93.7964 27.7782 94.0528 26.9128L100.687 29.0282C100.014 31.0794 98.7002 32.65 96.7451 33.7397C94.822 34.7974 92.4502 35.3262 89.6297 35.3262C85.431 35.3262 82.2099 34.2365 79.9663 32.057C77.7547 29.8775 76.649 26.8006 76.649 22.8262C76.649 18.8519 77.7387 15.775 79.9182 13.5955C82.0977 11.416 85.1906 10.3262 89.197 10.3262C93.0752 10.3262 96.04 11.4 98.0913 13.5474C100.175 15.6628 101.216 18.6435 101.216 22.4897ZM89.149 16.0474C86.5528 16.0474 85.0143 17.6179 84.5336 20.7589H93.572C93.1874 17.6179 91.7131 16.0474 89.149 16.0474Z" fill="#5E89FB"/>
<path d="M119.652 34.8455C118.754 37.4096 117.777 39.4448 116.719 40.9512C115.661 42.4576 114.411 43.5314 112.969 44.1724C111.527 44.8455 109.78 45.182 107.728 45.182C105.004 45.182 102.825 44.5891 101.19 43.4032L102.921 37.9224C103.434 38.4032 103.994 38.7237 104.603 38.8839C105.244 39.0762 106.062 39.1724 107.055 39.1724C108.049 39.1724 108.834 38.9961 109.411 38.6435C109.988 38.323 110.453 37.7301 110.805 36.8647L111.382 35.3743L108.594 28.8359L101.43 10.807H110.421L114.123 24.5089L115.277 29.6051L116.575 24.3166L120.277 10.807H128.45L119.652 34.8455Z" fill="#5E89FB"/>
<path d="M168.612 9.50893H158.276V34.8455H150.006V9.50893H139.622V3.1147H168.612V9.50893Z" fill="#5E89FB"/>
<path d="M190.801 22.4897C190.801 23.5794 190.721 24.4769 190.56 25.182H174.166C174.423 26.6884 174.968 27.7942 175.801 28.4993C176.666 29.2044 177.804 29.557 179.214 29.557C180.4 29.557 181.362 29.3326 182.099 28.8839C182.868 28.4352 183.381 27.7782 183.637 26.9128L190.272 29.0282C189.599 31.0794 188.285 32.65 186.33 33.7397C184.407 34.7974 182.035 35.3262 179.214 35.3262C175.016 35.3262 171.794 34.2365 169.551 32.057C167.339 29.8775 166.234 26.8006 166.234 22.8262C166.234 18.8519 167.323 15.775 169.503 13.5955C171.682 11.416 174.775 10.3262 178.782 10.3262C182.66 10.3262 185.625 11.4 187.676 13.5474C189.759 15.6628 190.801 18.6435 190.801 22.4897ZM178.734 16.0474C176.137 16.0474 174.599 17.6179 174.118 20.7589H183.157C182.772 17.6179 181.298 16.0474 178.734 16.0474Z" fill="#5E89FB"/>
<path d="M202.485 26.5282C202.485 27.6179 202.645 28.3871 202.966 28.8359C203.286 29.2846 203.863 29.5089 204.697 29.5089C205.466 29.5089 206.283 29.3647 207.149 29.0762L206.62 34.1243C206.043 34.4769 205.29 34.7653 204.36 34.9897C203.431 35.2141 202.517 35.3262 201.62 35.3262C199.056 35.3262 197.197 34.7333 196.043 33.5474C194.889 32.3294 194.312 30.3903 194.312 27.7301V0.614699H202.485V26.5282Z" fill="#5E89FB"/>
<path d="M232.588 22.4897C232.588 23.5794 232.508 24.4769 232.348 25.182H215.954C216.21 26.6884 216.755 27.7942 217.588 28.4993C218.454 29.2044 219.592 29.557 221.002 29.557C222.188 29.557 223.149 29.3326 223.886 28.8839C224.656 28.4352 225.168 27.7782 225.425 26.9128L232.059 29.0282C231.386 31.0794 230.072 32.65 228.117 33.7397C226.194 34.7974 223.822 35.3262 221.002 35.3262C216.803 35.3262 213.582 34.2365 211.338 32.057C209.127 29.8775 208.021 26.8006 208.021 22.8262C208.021 18.8519 209.111 15.775 211.29 13.5955C213.47 11.416 216.563 10.3262 220.569 10.3262C224.447 10.3262 227.412 11.4 229.463 13.5474C231.547 15.6628 232.588 18.6435 232.588 22.4897ZM220.521 16.0474C217.925 16.0474 216.386 17.6179 215.906 20.7589H224.944C224.56 17.6179 223.085 16.0474 220.521 16.0474Z" fill="#5E89FB"/>
<path d="M251.628 10.3262C254.769 10.3262 257.205 11.416 258.936 13.5955C260.667 15.775 261.532 18.8198 261.532 22.7301C261.532 26.7044 260.651 29.7974 258.888 32.0089C257.125 34.2205 254.705 35.3262 251.628 35.3262C249.93 35.3262 248.455 34.9256 247.205 34.1243C245.987 33.323 245.042 32.2173 244.369 30.807V44.9416H236.196V10.807H243.359L243.599 15.9032C244.273 14.2044 245.298 12.8583 246.676 11.8647C248.087 10.8391 249.737 10.3262 251.628 10.3262ZM248.792 29.3166C250.234 29.3166 251.34 28.7878 252.109 27.7301C252.91 26.6724 253.311 25.0378 253.311 22.8262C253.311 20.6147 252.91 18.9801 252.109 17.9224C251.34 16.8647 250.234 16.3359 248.792 16.3359C247.414 16.3359 246.324 16.8647 245.523 17.9224C244.753 18.9801 244.369 20.5346 244.369 22.5859V23.0666C244.369 25.0538 244.753 26.5923 245.523 27.682C246.292 28.7717 247.382 29.3166 248.792 29.3166Z" fill="#5E89FB"/>
<path d="M280.279 10.3262C281.368 10.3262 282.234 10.5025 282.875 10.8551L282.01 17.7782C281.689 17.5859 281.256 17.4256 280.711 17.2974C280.167 17.1371 279.59 17.057 278.981 17.057C277.442 17.057 276.16 17.5538 275.135 18.5474C274.109 19.5089 273.596 20.9032 273.596 22.7301V34.8455H265.423V10.807H272.635L272.971 15.9993C273.548 14.1724 274.445 12.7782 275.663 11.8166C276.913 10.823 278.452 10.3262 280.279 10.3262Z" fill="#5E89FB"/>
<path d="M296.376 10.3262C300.383 10.3262 303.492 11.432 305.703 13.6435C307.947 15.823 309.069 18.8839 309.069 22.8262C309.069 26.7685 307.947 29.8455 305.703 32.057C303.492 34.2365 300.383 35.3262 296.376 35.3262C292.37 35.3262 289.245 34.2365 287.001 32.057C284.79 29.8455 283.684 26.7685 283.684 22.8262C283.684 18.8839 284.79 15.823 287.001 13.6435C289.245 11.432 292.37 10.3262 296.376 10.3262ZM296.376 16.1435C294.838 16.1435 293.7 16.6724 292.963 17.7301C292.226 18.7878 291.857 20.4865 291.857 22.8262C291.857 25.166 292.226 26.8647 292.963 27.9224C293.7 28.9801 294.838 29.5089 296.376 29.5089C297.915 29.5089 299.053 28.9801 299.79 27.9224C300.527 26.8647 300.895 25.166 300.895 22.8262C300.895 20.4865 300.527 18.7878 299.79 17.7301C299.053 16.6724 297.915 16.1435 296.376 16.1435Z" fill="#5E89FB"/>
<path d="M344.096 10.3262C346.532 10.3262 348.503 11.0634 350.009 12.5378C351.548 14.0121 352.317 16.1115 352.317 18.8359V34.8455H344.144V20.7109C344.144 17.9544 343.054 16.5762 340.874 16.5762C339.592 16.5762 338.567 17.041 337.798 17.9705C337.028 18.9 336.644 20.2461 336.644 22.0089V34.8455H328.471V20.7109C328.471 17.9544 327.381 16.5762 325.201 16.5762C323.983 16.5762 322.974 17.041 322.173 17.9705C321.371 18.9 320.971 20.2942 320.971 22.1532V34.8455H312.798V10.807H320.105L320.346 15.4224C321.115 13.7557 322.189 12.4897 323.567 11.6243C324.945 10.7589 326.564 10.3262 328.423 10.3262C330.249 10.3262 331.82 10.7429 333.134 11.5762C334.48 12.4096 335.442 13.6115 336.019 15.182C336.788 13.6115 337.878 12.4096 339.288 11.5762C340.73 10.7429 342.333 10.3262 344.096 10.3262Z" fill="#5E89FB"/>
<path d="M372.529 10.3262C375.67 10.3262 378.106 11.416 379.836 13.5955C381.567 15.775 382.432 18.8198 382.432 22.7301C382.432 26.7044 381.551 29.7974 379.788 32.0089C378.025 34.2205 375.606 35.3262 372.529 35.3262C370.83 35.3262 369.356 34.9256 368.106 34.1243C366.888 33.323 365.942 32.2173 365.269 30.807V44.9416H357.096V10.807H364.259L364.5 15.9032C365.173 14.2044 366.199 12.8583 367.577 11.8647C368.987 10.8391 370.638 10.3262 372.529 10.3262ZM369.692 29.3166C371.134 29.3166 372.24 28.7878 373.009 27.7301C373.811 26.6724 374.211 25.0378 374.211 22.8262C374.211 20.6147 373.811 18.9801 373.009 17.9224C372.24 16.8647 371.134 16.3359 369.692 16.3359C368.314 16.3359 367.224 16.8647 366.423 17.9224C365.654 18.9801 365.269 20.5346 365.269 22.5859V23.0666C365.269 25.0538 365.654 26.5923 366.423 27.682C367.192 28.7717 368.282 29.3166 369.692 29.3166Z" fill="#5E89FB"/>
<path d="M403.587 33.4993C402.786 34.0442 401.761 34.4929 400.511 34.8455C399.293 35.166 398.059 35.3262 396.809 35.3262C393.956 35.3262 391.777 34.7173 390.27 33.4993C388.764 32.2814 387.994 30.3262 387.962 27.6339V16.6243H383.828V10.807H387.962V5.42239L396.136 3.16277V10.807H403.347V16.6243H396.136V26.2878C396.136 28.4352 397.193 29.5089 399.309 29.5089C400.623 29.5089 401.777 29.1564 402.77 28.4512L403.587 33.4993Z" fill="#5E89FB"/>
<path d="M410.153 8.01854C408.487 8.01854 407.269 7.71406 406.499 7.10508C405.762 6.46406 405.394 5.47047 405.394 4.12431C405.394 2.74611 405.762 1.75252 406.499 1.14354C407.269 0.502519 408.487 0.182007 410.153 0.182007C411.82 0.182007 413.022 0.502519 413.759 1.14354C414.528 1.75252 414.913 2.74611 414.913 4.12431C414.913 5.47047 414.528 6.46406 413.759 7.10508C413.022 7.71406 411.82 8.01854 410.153 8.01854ZM414.24 34.8455H406.067V10.807H414.24V34.8455Z" fill="#5E89FB"/>
<path d="M434.866 10.3262C437.398 10.3262 439.417 11.0634 440.923 12.5378C442.43 14.0121 443.183 16.1115 443.183 18.8359V34.8455H435.01V21.0955C435.01 19.4609 434.705 18.307 434.096 17.6339C433.519 16.9288 432.686 16.5762 431.596 16.5762C430.314 16.5762 429.273 17.041 428.471 17.9705C427.67 18.8679 427.269 20.2621 427.269 22.1532V34.8455H419.096V10.807H426.404L426.644 15.4224C427.414 13.7237 428.503 12.4576 429.914 11.6243C431.324 10.7589 432.975 10.3262 434.866 10.3262Z" fill="#5E89FB"/>
<path d="M463.189 29.5089C465.977 29.5089 468.124 30.1179 469.631 31.3359C471.169 32.5538 471.938 34.3487 471.938 36.7205C471.938 39.4448 470.721 41.5282 468.285 42.9705C465.881 44.4448 462.596 45.182 458.429 45.182C454.23 45.182 451.121 44.6852 449.102 43.6916C447.115 42.698 446.121 41.3038 446.121 39.5089C446.121 38.4512 446.49 37.5218 447.227 36.7205C447.964 35.9192 449.086 35.3423 450.592 34.9897C448.124 33.932 446.89 32.2653 446.89 29.9897C446.89 28.8679 447.243 27.8743 447.948 27.0089C448.653 26.1435 449.615 25.5025 450.833 25.0859C448.205 23.6756 446.89 21.4801 446.89 18.4993C446.89 15.9032 447.916 13.9 449.967 12.4897C452.019 11.0474 454.903 10.3262 458.621 10.3262C460.352 10.3262 461.955 10.5025 463.429 10.8551C463.749 8.93201 464.471 7.36149 465.592 6.14355C466.714 4.9256 468.269 4.31662 470.256 4.31662L471.025 4.3647L471.938 9.79739C471.297 9.73329 470.849 9.70124 470.592 9.70124C469.503 9.70124 468.589 9.89354 467.852 10.2782C467.147 10.6628 466.634 11.1916 466.314 11.8647C469.006 13.275 470.352 15.4865 470.352 18.4993C470.352 21.0955 469.326 23.0987 467.275 24.5089C465.224 25.9192 462.339 26.6243 458.621 26.6243C456.89 26.6243 455.352 26.4801 454.006 26.1916C453.012 26.448 452.515 27.0089 452.515 27.8743C452.515 28.9641 453.349 29.5089 455.015 29.5089H463.189ZM458.621 14.9897C457.564 14.9897 456.698 15.3102 456.025 15.9512C455.384 16.5923 455.064 17.4416 455.064 18.4993C455.064 19.557 455.384 20.4064 456.025 21.0474C456.698 21.6564 457.564 21.9609 458.621 21.9609C459.679 21.9609 460.528 21.6564 461.169 21.0474C461.842 20.4064 462.179 19.557 462.179 18.4993C462.179 17.4416 461.842 16.5923 461.169 15.9512C460.528 15.3102 459.679 14.9897 458.621 14.9897ZM459.006 39.8935C461.121 39.8935 462.724 39.6692 463.813 39.2205C464.935 38.8038 465.496 38.2429 465.496 37.5378C465.496 37.025 465.272 36.6403 464.823 36.3839C464.374 36.1275 463.621 35.9993 462.564 35.9993H455.977C454.663 35.9993 453.717 36.1275 453.14 36.3839C452.596 36.6724 452.323 37.1051 452.323 37.682C452.323 39.1564 454.551 39.8935 459.006 39.8935Z" fill="#5E89FB"/>
</svg>
